<svg width="103" height="102" viewBox="0 0 103 102" fill="none" xmlns="http://www.w3.org/2000/svg">
<g filter="url(#filter0_d_93_719)">
<rect x="16.8086" y="13.5881" width="65" height="65" rx="2.45" fill="#FBB142"/>
</g>
<g clip-path="url(#clip0_93_719)">
<path d="M49.308 59.63C41.829 59.63 35.7664 53.5674 35.7664 46.0883C35.7664 38.6092 41.829 32.5466 49.308 32.5466C56.7871 32.5466 62.8497 38.6092 62.8497 46.0883C62.8497 53.5674 56.7871 59.63 49.308 59.63ZM49.308 56.9216C52.1812 56.9216 54.9367 55.7803 56.9683 53.7486C59 51.717 60.1414 48.9615 60.1414 46.0883C60.1414 43.2151 59 40.4596 56.9683 38.428C54.9367 36.3963 52.1812 35.255 49.308 35.255C46.4348 35.255 43.6793 36.3963 41.6477 38.428C39.6161 40.4596 38.4747 43.2151 38.4747 46.0883C38.4747 48.9615 39.6161 51.717 41.6477 53.7486C43.6793 55.7803 46.4348 56.9216 49.308 56.9216ZM49.308 39.3852L56.0112 46.0883L49.308 52.7914L42.6049 46.0883L49.308 39.3852ZM49.308 43.2161L46.4358 46.0883L49.308 48.9605L52.1802 46.0883L49.308 43.2161Z" fill="white"/>
</g>
<defs>
<filter id="filter0_d_93_719" x="0.883594" y="0.113134" width="101.75" height="101.75" filterUnits="userSpaceOnUse" color-interpolation-filters="sRGB">
<feFlood flood-opacity="0" result="BackgroundImageFix"/>
<feColorMatrix in="SourceAlpha" type="matrix" values="0 0 0 0 0 0 0 0 0 0 0 0 0 0 0 0 0 0 127 0" result="hardAlpha"/>
<feOffset dx="2.45" dy="4.9"/>
<feGaussianBlur stdDeviation="9.1875"/>
<feComposite in2="hardAlpha" operator="out"/>
<feColorMatrix type="matrix" values="0 0 0 0 0.984314 0 0 0 0 0.694118 0 0 0 0 0.258824 0 0 0 0.35 0"/>
<feBlend mode="normal" in2="BackgroundImageFix" result="effect1_dropShadow_93_719"/>
<feBlend mode="normal" in="SourceGraphic" in2="effect1_dropShadow_93_719" result="shape"/>
</filter>
<clipPath id="clip0_93_719">
<rect width="32.5" height="32.5" fill="white" transform="translate(33.0583 29.8381)"/>
</clipPath>
</defs>
</svg>
