<svg width="103" height="102" viewBox="0 0 103 102" fill="none" xmlns="http://www.w3.org/2000/svg">
<g filter="url(#filter0_d_121_1277)">
<rect x="16.8086" y="13.5514" width="65" height="65" rx="2.45" fill="#ED5B75"/>
</g>
<g clip-path="url(#clip0_121_1277)">
<path d="M49.3083 59.5935C41.8292 59.5935 35.7666 53.5309 35.7666 46.0518C35.7666 38.5727 41.8292 32.5101 49.3083 32.5101C56.7873 32.5101 62.8499 38.5727 62.8499 46.0518C62.8499 53.5309 56.7873 59.5935 49.3083 59.5935ZM49.3083 56.8851C52.1814 56.8851 54.9369 55.7438 56.9686 53.7121C59.0002 51.6805 60.1416 48.925 60.1416 46.0518C60.1416 43.1786 59.0002 40.4231 56.9686 38.3915C54.9369 36.3598 52.1814 35.2185 49.3083 35.2185C46.4351 35.2185 43.6796 36.3598 41.6479 38.3915C39.6163 40.4231 38.4749 43.1786 38.4749 46.0518C38.4749 48.925 39.6163 51.6805 41.6479 53.7121C43.6796 55.7438 46.4351 56.8851 49.3083 56.8851ZM44.5687 48.7601H52.0166C52.1962 48.7601 52.3684 48.6888 52.4954 48.5618C52.6224 48.4348 52.6937 48.2626 52.6937 48.083C52.6937 47.9035 52.6224 47.7313 52.4954 47.6043C52.3684 47.4773 52.1962 47.406 52.0166 47.406H46.5999C45.7021 47.406 44.841 47.0493 44.2061 46.4144C43.5712 45.7795 43.2145 44.9184 43.2145 44.0205C43.2145 43.1227 43.5712 42.2616 44.2061 41.6267C44.841 40.9918 45.7021 40.6351 46.5999 40.6351H47.9541V37.9268H50.6624V40.6351H54.0479V43.3435H46.5999C46.4204 43.3435 46.2481 43.4148 46.1212 43.5418C45.9942 43.6688 45.9229 43.841 45.9229 44.0205C45.9229 44.2001 45.9942 44.3723 46.1212 44.4993C46.2481 44.6263 46.4204 44.6976 46.5999 44.6976H52.0166C52.9145 44.6976 53.7756 45.0543 54.4105 45.6892C55.0453 46.3241 55.402 47.1852 55.402 48.083C55.402 48.9809 55.0453 49.842 54.4105 50.4769C53.7756 51.1118 52.9145 51.4685 52.0166 51.4685H50.6624V54.1768H47.9541V51.4685H44.5687V48.7601Z" fill="white"/>
</g>
<defs>
<filter id="filter0_d_121_1277" x="0.883594" y="0.0763912" width="101.75" height="101.75" filterUnits="userSpaceOnUse" color-interpolation-filters="sRGB">
<feFlood flood-opacity="0" result="BackgroundImageFix"/>
<feColorMatrix in="SourceAlpha" type="matrix" values="0 0 0 0 0 0 0 0 0 0 0 0 0 0 0 0 0 0 127 0" result="hardAlpha"/>
<feOffset dx="2.45" dy="4.9"/>
<feGaussianBlur stdDeviation="9.1875"/>
<feComposite in2="hardAlpha" operator="out"/>
<feColorMatrix type="matrix" values="0 0 0 0 0.929412 0 0 0 0 0.356863 0 0 0 0 0.458824 0 0 0 0.35 0"/>
<feBlend mode="normal" in2="BackgroundImageFix" result="effect1_dropShadow_121_1277"/>
<feBlend mode="normal" in="SourceGraphic" in2="effect1_dropShadow_121_1277" result="shape"/>
</filter>
<clipPath id="clip0_121_1277">
<rect width="32.5" height="32.5" fill="white" transform="translate(33.0586 29.8019)"/>
</clipPath>
</defs>
</svg>
