<svg width="103" height="102" viewBox="0 0 103 102" fill="none" xmlns="http://www.w3.org/2000/svg">
<g filter="url(#filter0_d_121_1266)">
<rect x="16.8086" y="13.5698" width="65" height="65" rx="2.45" fill="#4FDFB1"/>
</g>
<g clip-path="url(#clip0_121_1266)">
<path d="M56.0791 33.8828H61.4958C61.8549 33.8828 62.1994 34.0254 62.4533 34.2794C62.7073 34.5334 62.8499 34.8778 62.8499 35.2369V56.9036C62.8499 57.2628 62.7073 57.6072 62.4533 57.8611C62.1994 58.1151 61.8549 58.2578 61.4958 58.2578H37.1208C36.7616 58.2578 36.4172 58.1151 36.1632 57.8611C35.9093 57.6072 35.7666 57.2628 35.7666 56.9036V35.2369C35.7666 34.8778 35.9093 34.5334 36.1632 34.2794C36.4172 34.0254 36.7616 33.8828 37.1208 33.8828H42.5374V31.1744H45.2458V33.8828H53.3708V31.1744H56.0791V33.8828ZM38.4749 42.0078V55.5494H60.1416V42.0078H38.4749ZM41.1833 44.7161H43.8916V47.4244H41.1833V44.7161ZM47.9541 44.7161H50.6624V47.4244H47.9541V44.7161ZM54.7249 44.7161H57.4333V47.4244H54.7249V44.7161Z" fill="white"/>
</g>
<defs>
<filter id="filter0_d_121_1266" x="0.883594" y="0.0948238" width="101.75" height="101.75" filterUnits="userSpaceOnUse" color-interpolation-filters="sRGB">
<feFlood flood-opacity="0" result="BackgroundImageFix"/>
<feColorMatrix in="SourceAlpha" type="matrix" values="0 0 0 0 0 0 0 0 0 0 0 0 0 0 0 0 0 0 127 0" result="hardAlpha"/>
<feOffset dx="2.45" dy="4.9"/>
<feGaussianBlur stdDeviation="9.1875"/>
<feComposite in2="hardAlpha" operator="out"/>
<feColorMatrix type="matrix" values="0 0 0 0 0.309804 0 0 0 0 0.87451 0 0 0 0 0.694118 0 0 0 0.35 0"/>
<feBlend mode="normal" in2="BackgroundImageFix" result="effect1_dropShadow_121_1266"/>
<feBlend mode="normal" in="SourceGraphic" in2="effect1_dropShadow_121_1266" result="shape"/>
</filter>
<clipPath id="clip0_121_1266">
<rect width="32.5" height="32.5" fill="white" transform="translate(33.0586 29.8199)"/>
</clipPath>
</defs>
</svg>
