<svg width="15" height="15" viewBox="0 0 15 15" fill="none" xmlns="http://www.w3.org/2000/svg">
<g clip-path="url(#clip0_84_230)">
<path d="M12.25 10.4124H13.475V11.6374H1.22498V10.4124H2.44998V6.12485C2.44998 4.82529 2.96622 3.57896 3.88515 2.66003C4.80408 1.7411 6.05042 1.22485 7.34998 1.22485C8.64954 1.22485 9.89587 1.7411 10.8148 2.66003C11.7337 3.57896 12.25 4.82529 12.25 6.12485V10.4124ZM11.025 10.4124V6.12485C11.025 5.15018 10.6378 4.21543 9.94859 3.52624C9.2594 2.83704 8.32465 2.44985 7.34998 2.44985C6.37531 2.44985 5.44055 2.83704 4.75136 3.52624C4.06216 4.21543 3.67498 5.15018 3.67498 6.12485V10.4124H11.025ZM5.51248 12.8624H9.18748V14.0874H5.51248V12.8624Z" fill="black"/>
</g>
<circle cx="11.0251" cy="3.0623" r="2.45" fill="#ED5B75"/>
<defs>
<clipPath id="clip0_84_230">
<rect width="14.7" height="14.7" fill="white"/>
</clipPath>
</defs>
</svg>
