<svg width="103" height="102" viewBox="0 0 103 102" fill="none" xmlns="http://www.w3.org/2000/svg">
<g filter="url(#filter0_d_93_289)">
<rect x="16.8086" y="13.5698" width="65" height="65" rx="2.45" fill="#4FDFB1"/>
</g>
<g clip-path="url(#clip0_93_289)">
<path d="M56.0789 33.8828H61.4955C61.8547 33.8828 62.1991 34.0254 62.4531 34.2794C62.707 34.5334 62.8497 34.8778 62.8497 35.2369V56.9036C62.8497 57.2628 62.707 57.6072 62.4531 57.8611C62.1991 58.1151 61.8547 58.2578 61.4955 58.2578H37.1205C36.7614 58.2578 36.4169 58.1151 36.163 57.8611C35.909 57.6072 35.7664 57.2628 35.7664 56.9036V35.2369C35.7664 34.8778 35.909 34.5334 36.163 34.2794C36.4169 34.0254 36.7614 33.8828 37.1205 33.8828H42.5372V31.1744H45.2455V33.8828H53.3705V31.1744H56.0789V33.8828ZM38.4747 42.0078V55.5494H60.1414V42.0078H38.4747ZM41.183 44.7161H43.8914V47.4244H41.183V44.7161ZM47.9539 44.7161H50.6622V47.4244H47.9539V44.7161ZM54.7247 44.7161H57.433V47.4244H54.7247V44.7161Z" fill="white"/>
</g>
<defs>
<filter id="filter0_d_93_289" x="0.883594" y="0.0948238" width="101.75" height="101.75" filterUnits="userSpaceOnUse" color-interpolation-filters="sRGB">
<feFlood flood-opacity="0" result="BackgroundImageFix"/>
<feColorMatrix in="SourceAlpha" type="matrix" values="0 0 0 0 0 0 0 0 0 0 0 0 0 0 0 0 0 0 127 0" result="hardAlpha"/>
<feOffset dx="2.45" dy="4.9"/>
<feGaussianBlur stdDeviation="9.1875"/>
<feComposite in2="hardAlpha" operator="out"/>
<feColorMatrix type="matrix" values="0 0 0 0 0.309804 0 0 0 0 0.87451 0 0 0 0 0.694118 0 0 0 0.35 0"/>
<feBlend mode="normal" in2="BackgroundImageFix" result="effect1_dropShadow_93_289"/>
<feBlend mode="normal" in="SourceGraphic" in2="effect1_dropShadow_93_289" result="shape"/>
</filter>
<clipPath id="clip0_93_289">
<rect width="32.5" height="32.5" fill="white" transform="translate(33.0583 29.8199)"/>
</clipPath>
</defs>
</svg>
