<svg width="103" height="102" viewBox="0 0 103 102" fill="none" xmlns="http://www.w3.org/2000/svg">
<g filter="url(#filter0_d_181_2064)">
<rect x="16.8085" y="13.5889" width="65" height="65" rx="2.45" fill="#FBB142"/>
</g>
<g clip-path="url(#clip0_181_2064)">
<path d="M49.3081 59.6312C41.8291 59.6312 35.7665 53.5686 35.7665 46.0895C35.7665 38.6105 41.8291 32.5479 49.3081 32.5479C56.7872 32.5479 62.8498 38.6105 62.8498 46.0895C62.8498 53.5686 56.7872 59.6312 49.3081 59.6312ZM49.3081 56.9229C52.1813 56.9229 54.9368 55.7815 56.9685 53.7498C59.0001 51.7182 60.1415 48.9627 60.1415 46.0895C60.1415 43.2163 59.0001 40.4608 56.9685 38.4292C54.9368 36.3976 52.1813 35.2562 49.3081 35.2562C46.435 35.2562 43.6795 36.3976 41.6478 38.4292C39.6162 40.4608 38.4748 43.2163 38.4748 46.0895C38.4748 48.9627 39.6162 51.7182 41.6478 53.7498C43.6795 55.7815 46.435 56.9229 49.3081 56.9229ZM49.3081 39.3864L56.0113 46.0895L49.3081 52.7926L42.605 46.0895L49.3081 39.3864ZM49.3081 43.2173L46.436 46.0895L49.3081 48.9617L52.1803 46.0895L49.3081 43.2173Z" fill="white"/>
</g>
<defs>
<filter id="filter0_d_181_2064" x="0.883471" y="0.113867" width="101.75" height="101.75" filterUnits="userSpaceOnUse" color-interpolation-filters="sRGB">
<feFlood flood-opacity="0" result="BackgroundImageFix"/>
<feColorMatrix in="SourceAlpha" type="matrix" values="0 0 0 0 0 0 0 0 0 0 0 0 0 0 0 0 0 0 127 0" result="hardAlpha"/>
<feOffset dx="2.45" dy="4.9"/>
<feGaussianBlur stdDeviation="9.1875"/>
<feComposite in2="hardAlpha" operator="out"/>
<feColorMatrix type="matrix" values="0 0 0 0 0.984314 0 0 0 0 0.694118 0 0 0 0 0.258824 0 0 0 0.35 0"/>
<feBlend mode="normal" in2="BackgroundImageFix" result="effect1_dropShadow_181_2064"/>
<feBlend mode="normal" in="SourceGraphic" in2="effect1_dropShadow_181_2064" result="shape"/>
</filter>
<clipPath id="clip0_181_2064">
<rect width="32.5" height="32.5" fill="white" transform="translate(33.0583 29.8389)"/>
</clipPath>
</defs>
</svg>
