<svg width="103" height="102" viewBox="0 0 103 102" fill="none" xmlns="http://www.w3.org/2000/svg">
<g filter="url(#filter0_d_181_2073)">
<rect x="16.8085" y="13.5703" width="65" height="65" rx="2.45" fill="#4FDFB1"/>
</g>
<g clip-path="url(#clip0_181_2073)">
<path d="M56.079 33.8831H61.4956C61.8548 33.8831 62.1992 34.0258 62.4532 34.2798C62.7071 34.5337 62.8498 34.8782 62.8498 35.2373V56.904C62.8498 57.2631 62.7071 57.6076 62.4532 57.8615C62.1992 58.1155 61.8548 58.2581 61.4956 58.2581H37.1206C36.7615 58.2581 36.4171 58.1155 36.1631 57.8615C35.9092 57.6076 35.7665 57.2631 35.7665 56.904V35.2373C35.7665 34.8782 35.9092 34.5337 36.1631 34.2798C36.4171 34.0258 36.7615 33.8831 37.1206 33.8831H42.5373V31.1748H45.2456V33.8831H53.3706V31.1748H56.079V33.8831ZM38.4748 42.0081V55.5498H60.1415V42.0081H38.4748ZM41.1831 44.7165H43.8915V47.4248H41.1831V44.7165ZM47.954 44.7165H50.6623V47.4248H47.954V44.7165ZM54.7248 44.7165H57.4331V47.4248H54.7248V44.7165Z" fill="white"/>
</g>
<defs>
<filter id="filter0_d_181_2073" x="0.883471" y="0.0953121" width="101.75" height="101.75" filterUnits="userSpaceOnUse" color-interpolation-filters="sRGB">
<feFlood flood-opacity="0" result="BackgroundImageFix"/>
<feColorMatrix in="SourceAlpha" type="matrix" values="0 0 0 0 0 0 0 0 0 0 0 0 0 0 0 0 0 0 127 0" result="hardAlpha"/>
<feOffset dx="2.45" dy="4.9"/>
<feGaussianBlur stdDeviation="9.1875"/>
<feComposite in2="hardAlpha" operator="out"/>
<feColorMatrix type="matrix" values="0 0 0 0 0.309804 0 0 0 0 0.87451 0 0 0 0 0.694118 0 0 0 0.35 0"/>
<feBlend mode="normal" in2="BackgroundImageFix" result="effect1_dropShadow_181_2073"/>
<feBlend mode="normal" in="SourceGraphic" in2="effect1_dropShadow_181_2073" result="shape"/>
</filter>
<clipPath id="clip0_181_2073">
<rect width="32.5" height="32.5" fill="white" transform="translate(33.0583 29.8203)"/>
</clipPath>
</defs>
</svg>
