<svg width="103" height="102" viewBox="0 0 103 102" fill="none" xmlns="http://www.w3.org/2000/svg">
<g filter="url(#filter0_d_181_2084)">
<rect x="16.8085" y="13.5518" width="65" height="65" rx="2.45" fill="#ED5B75"/>
</g>
<g clip-path="url(#clip0_181_2084)">
<path d="M49.3081 59.5931C41.8291 59.5931 35.7665 53.5305 35.7665 46.0514C35.7665 38.5724 41.8291 32.5098 49.3081 32.5098C56.7872 32.5098 62.8498 38.5724 62.8498 46.0514C62.8498 53.5305 56.7872 59.5931 49.3081 59.5931ZM49.3081 56.8848C52.1813 56.8848 54.9368 55.7434 56.9685 53.7118C59.0001 51.6801 60.1415 48.9246 60.1415 46.0514C60.1415 43.1783 59.0001 40.4228 56.9685 38.3911C54.9368 36.3595 52.1813 35.2181 49.3081 35.2181C46.435 35.2181 43.6795 36.3595 41.6478 38.3911C39.6162 40.4228 38.4748 43.1783 38.4748 46.0514C38.4748 48.9246 39.6162 51.6801 41.6478 53.7118C43.6795 55.7434 46.435 56.8848 49.3081 56.8848ZM44.5686 48.7598H52.0165C52.1961 48.7598 52.3683 48.6884 52.4953 48.5615C52.6222 48.4345 52.6936 48.2623 52.6936 48.0827C52.6936 47.9031 52.6222 47.7309 52.4953 47.6039C52.3683 47.4769 52.1961 47.4056 52.0165 47.4056H46.5998C45.7019 47.4056 44.8409 47.0489 44.206 46.414C43.5711 45.7791 43.2144 44.9181 43.2144 44.0202C43.2144 43.1223 43.5711 42.2612 44.206 41.6263C44.8409 40.9914 45.7019 40.6348 46.5998 40.6348H47.954V37.9264H50.6623V40.6348H54.0477V43.3431H46.5998C46.4202 43.3431 46.248 43.4144 46.121 43.5414C45.9941 43.6684 45.9227 43.8406 45.9227 44.0202C45.9227 44.1998 45.9941 44.372 46.121 44.499C46.248 44.6259 46.4202 44.6973 46.5998 44.6973H52.0165C52.9143 44.6973 53.7754 45.0539 54.4103 45.6888C55.0452 46.3237 55.4019 47.1848 55.4019 48.0827C55.4019 48.9806 55.0452 49.8416 54.4103 50.4765C53.7754 51.1114 52.9143 51.4681 52.0165 51.4681H50.6623V54.1764H47.954V51.4681H44.5686V48.7598Z" fill="white"/>
</g>
<defs>
<filter id="filter0_d_181_2084" x="0.883471" y="0.0767574" width="101.75" height="101.75" filterUnits="userSpaceOnUse" color-interpolation-filters="sRGB">
<feFlood flood-opacity="0" result="BackgroundImageFix"/>
<feColorMatrix in="SourceAlpha" type="matrix" values="0 0 0 0 0 0 0 0 0 0 0 0 0 0 0 0 0 0 127 0" result="hardAlpha"/>
<feOffset dx="2.45" dy="4.9"/>
<feGaussianBlur stdDeviation="9.1875"/>
<feComposite in2="hardAlpha" operator="out"/>
<feColorMatrix type="matrix" values="0 0 0 0 0.929412 0 0 0 0 0.356863 0 0 0 0 0.458824 0 0 0 0.35 0"/>
<feBlend mode="normal" in2="BackgroundImageFix" result="effect1_dropShadow_181_2084"/>
<feBlend mode="normal" in="SourceGraphic" in2="effect1_dropShadow_181_2084" result="shape"/>
</filter>
<clipPath id="clip0_181_2084">
<rect width="32.5" height="32.5" fill="white" transform="translate(33.0583 29.8018)"/>
</clipPath>
</defs>
</svg>
