<svg width="103" height="102" viewBox="0 0 103 102" fill="none" xmlns="http://www.w3.org/2000/svg">
<g filter="url(#filter0_d_121_1257)">
<rect x="16.8086" y="13.5883" width="65" height="65" rx="2.45" fill="#FBB142"/>
</g>
<path d="M49.3083 59.6302C41.8292 59.6302 35.7666 53.5676 35.7666 46.0885C35.7666 38.6095 41.8292 32.5469 49.3083 32.5469C56.7873 32.5469 62.8499 38.6095 62.8499 46.0885C62.8499 53.5676 56.7873 59.6302 49.3083 59.6302ZM49.3083 56.9219C52.1814 56.9219 54.9369 55.7805 56.9686 53.7489C59.0002 51.7172 60.1416 48.9617 60.1416 46.0885C60.1416 43.2154 59.0002 40.4599 56.9686 38.4282C54.9369 36.3966 52.1814 35.2552 49.3083 35.2552C46.4351 35.2552 43.6796 36.3966 41.6479 38.4282C39.6163 40.4599 38.4749 43.2154 38.4749 46.0885C38.4749 48.9617 39.6163 51.7172 41.6479 53.7489C43.6796 55.7805 46.4351 56.9219 49.3083 56.9219ZM49.3083 39.3854L56.0114 46.0885L49.3083 52.7917L42.6051 46.0885L49.3083 39.3854ZM49.3083 43.2164L46.4361 46.0885L49.3083 48.9607L52.1805 46.0885L49.3083 43.2164Z" fill="white"/>
<defs>
<filter id="filter0_d_121_1257" x="0.883594" y="0.113317" width="101.75" height="101.75" filterUnits="userSpaceOnUse" color-interpolation-filters="sRGB">
<feFlood flood-opacity="0" result="BackgroundImageFix"/>
<feColorMatrix in="SourceAlpha" type="matrix" values="0 0 0 0 0 0 0 0 0 0 0 0 0 0 0 0 0 0 127 0" result="hardAlpha"/>
<feOffset dx="2.45" dy="4.9"/>
<feGaussianBlur stdDeviation="9.1875"/>
<feComposite in2="hardAlpha" operator="out"/>
<feColorMatrix type="matrix" values="0 0 0 0 0.984314 0 0 0 0 0.694118 0 0 0 0 0.258824 0 0 0 0.35 0"/>
<feBlend mode="normal" in2="BackgroundImageFix" result="effect1_dropShadow_121_1257"/>
<feBlend mode="normal" in="SourceGraphic" in2="effect1_dropShadow_121_1257" result="shape"/>
</filter>
</defs>
</svg>
