<svg width="103" height="102" viewBox="0 0 103 102" fill="none" xmlns="http://www.w3.org/2000/svg">
<g filter="url(#filter0_d_93_300)">
<rect x="16.8086" y="13.5514" width="65" height="65" rx="2.45" fill="#ED5B75"/>
</g>
<g clip-path="url(#clip0_93_300)">
<path d="M49.308 59.5935C41.829 59.5935 35.7664 53.5309 35.7664 46.0518C35.7664 38.5727 41.829 32.5101 49.308 32.5101C56.7871 32.5101 62.8497 38.5727 62.8497 46.0518C62.8497 53.5309 56.7871 59.5935 49.308 59.5935ZM49.308 56.8851C52.1812 56.8851 54.9367 55.7438 56.9683 53.7121C59 51.6805 60.1414 48.925 60.1414 46.0518C60.1414 43.1786 59 40.4231 56.9683 38.3915C54.9367 36.3598 52.1812 35.2185 49.308 35.2185C46.4348 35.2185 43.6793 36.3598 41.6477 38.3915C39.6161 40.4231 38.4747 43.1786 38.4747 46.0518C38.4747 48.925 39.6161 51.6805 41.6477 53.7121C43.6793 55.7438 46.4348 56.8851 49.308 56.8851ZM44.5684 48.7601H52.0164C52.1959 48.7601 52.3682 48.6888 52.4951 48.5618C52.6221 48.4348 52.6934 48.2626 52.6934 48.083C52.6934 47.9035 52.6221 47.7313 52.4951 47.6043C52.3682 47.4773 52.1959 47.406 52.0164 47.406H46.5997C45.7018 47.406 44.8407 47.0493 44.2058 46.4144C43.571 45.7795 43.2143 44.9184 43.2143 44.0205C43.2143 43.1227 43.571 42.2616 44.2058 41.6267C44.8407 40.9918 45.7018 40.6351 46.5997 40.6351H47.9539V37.9268H50.6622V40.6351H54.0476V43.3435H46.5997C46.4201 43.3435 46.2479 43.4148 46.1209 43.5418C45.9939 43.6688 45.9226 43.841 45.9226 44.0205C45.9226 44.2001 45.9939 44.3723 46.1209 44.4993C46.2479 44.6263 46.4201 44.6976 46.5997 44.6976H52.0164C52.9142 44.6976 53.7753 45.0543 54.4102 45.6892C55.0451 46.3241 55.4018 47.1852 55.4018 48.083C55.4018 48.9809 55.0451 49.842 54.4102 50.4769C53.7753 51.1118 52.9142 51.4685 52.0164 51.4685H50.6622V54.1768H47.9539V51.4685H44.5684V48.7601Z" fill="white"/>
</g>
<defs>
<filter id="filter0_d_93_300" x="0.883594" y="0.0763912" width="101.75" height="101.75" filterUnits="userSpaceOnUse" color-interpolation-filters="sRGB">
<feFlood flood-opacity="0" result="BackgroundImageFix"/>
<feColorMatrix in="SourceAlpha" type="matrix" values="0 0 0 0 0 0 0 0 0 0 0 0 0 0 0 0 0 0 127 0" result="hardAlpha"/>
<feOffset dx="2.45" dy="4.9"/>
<feGaussianBlur stdDeviation="9.1875"/>
<feComposite in2="hardAlpha" operator="out"/>
<feColorMatrix type="matrix" values="0 0 0 0 0.929412 0 0 0 0 0.356863 0 0 0 0 0.458824 0 0 0 0.35 0"/>
<feBlend mode="normal" in2="BackgroundImageFix" result="effect1_dropShadow_93_300"/>
<feBlend mode="normal" in="SourceGraphic" in2="effect1_dropShadow_93_300" result="shape"/>
</filter>
<clipPath id="clip0_93_300">
<rect width="32.5" height="32.5" fill="white" transform="translate(33.0583 29.8019)"/>
</clipPath>
</defs>
</svg>
