<svg width="103" height="102" viewBox="0 0 103 102" fill="none" xmlns="http://www.w3.org/2000/svg">
<g filter="url(#filter0_d_181_1883)">
<rect x="16.8086" y="13.5703" width="65" height="65" rx="2.45" fill="#4FDFB1"/>
</g>
<g clip-path="url(#clip0_181_1883)">
<path d="M56.0789 33.8831H61.4955C61.8547 33.8831 62.1991 34.0258 62.4531 34.2798C62.707 34.5337 62.8497 34.8782 62.8497 35.2373V56.904C62.8497 57.2631 62.707 57.6076 62.4531 57.8615C62.1991 58.1155 61.8547 58.2581 61.4955 58.2581H37.1205C36.7614 58.2581 36.4169 58.1155 36.163 57.8615C35.909 57.6076 35.7664 57.2631 35.7664 56.904V35.2373C35.7664 34.8782 35.909 34.5337 36.163 34.2798C36.4169 34.0258 36.7614 33.8831 37.1205 33.8831H42.5372V31.1748H45.2455V33.8831H53.3705V31.1748H56.0789V33.8831ZM38.4747 42.0081V55.5498H60.1414V42.0081H38.4747ZM41.183 44.7165H43.8914V47.4248H41.183V44.7165ZM47.9539 44.7165H50.6622V47.4248H47.9539V44.7165ZM54.7247 44.7165H57.433V47.4248H54.7247V44.7165Z" fill="white"/>
</g>
<defs>
<filter id="filter0_d_181_1883" x="0.883594" y="0.0953121" width="101.75" height="101.75" filterUnits="userSpaceOnUse" color-interpolation-filters="sRGB">
<feFlood flood-opacity="0" result="BackgroundImageFix"/>
<feColorMatrix in="SourceAlpha" type="matrix" values="0 0 0 0 0 0 0 0 0 0 0 0 0 0 0 0 0 0 127 0" result="hardAlpha"/>
<feOffset dx="2.45" dy="4.9"/>
<feGaussianBlur stdDeviation="9.1875"/>
<feComposite in2="hardAlpha" operator="out"/>
<feColorMatrix type="matrix" values="0 0 0 0 0.309804 0 0 0 0 0.87451 0 0 0 0 0.694118 0 0 0 0.35 0"/>
<feBlend mode="normal" in2="BackgroundImageFix" result="effect1_dropShadow_181_1883"/>
<feBlend mode="normal" in="SourceGraphic" in2="effect1_dropShadow_181_1883" result="shape"/>
</filter>
<clipPath id="clip0_181_1883">
<rect width="32.5" height="32.5" fill="white" transform="translate(33.0583 29.8203)"/>
</clipPath>
</defs>
</svg>
