<svg width="103" height="102" viewBox="0 0 103 102" fill="none" xmlns="http://www.w3.org/2000/svg">
<g filter="url(#filter0_d_93_739)">
<rect x="16.8086" y="13.5513" width="65" height="65" rx="2.45" fill="#ED5B75"/>
</g>
<g clip-path="url(#clip0_93_739)">
<path d="M49.308 59.5933C41.829 59.5933 35.7664 53.5307 35.7664 46.0517C35.7664 38.5726 41.829 32.51 49.308 32.51C56.7871 32.51 62.8497 38.5726 62.8497 46.0517C62.8497 53.5307 56.7871 59.5933 49.308 59.5933ZM49.308 56.885C52.1812 56.885 54.9367 55.7436 56.9683 53.712C59 51.6804 60.1414 48.9249 60.1414 46.0517C60.1414 43.1785 59 40.423 56.9683 38.3914C54.9367 36.3597 52.1812 35.2183 49.308 35.2183C46.4348 35.2183 43.6793 36.3597 41.6477 38.3914C39.6161 40.423 38.4747 43.1785 38.4747 46.0517C38.4747 48.9249 39.6161 51.6804 41.6477 53.712C43.6793 55.7436 46.4348 56.885 49.308 56.885ZM44.5684 48.76H52.0164C52.1959 48.76 52.3682 48.6887 52.4951 48.5617C52.6221 48.4347 52.6934 48.2625 52.6934 48.0829C52.6934 47.9034 52.6221 47.7311 52.4951 47.6042C52.3682 47.4772 52.1959 47.4058 52.0164 47.4058H46.5997C45.7018 47.4058 44.8407 47.0492 44.2058 46.4143C43.571 45.7794 43.2143 44.9183 43.2143 44.0204C43.2143 43.1226 43.571 42.2615 44.2058 41.6266C44.8407 40.9917 45.7018 40.635 46.5997 40.635H47.9539V37.9267H50.6622V40.635H54.0476V43.3433H46.5997C46.4201 43.3433 46.2479 43.4147 46.1209 43.5417C45.9939 43.6686 45.9226 43.8409 45.9226 44.0204C45.9226 44.2 45.9939 44.3722 46.1209 44.4992C46.2479 44.6262 46.4201 44.6975 46.5997 44.6975H52.0164C52.9142 44.6975 53.7753 45.0542 54.4102 45.6891C55.0451 46.324 55.4018 47.1851 55.4018 48.0829C55.4018 48.9808 55.0451 49.8419 54.4102 50.4768C53.7753 51.1117 52.9142 51.4683 52.0164 51.4683H50.6622V54.1767H47.9539V51.4683H44.5684V48.76Z" fill="white"/>
</g>
<defs>
<filter id="filter0_d_93_739" x="0.883594" y="0.0762691" width="101.75" height="101.75" filterUnits="userSpaceOnUse" color-interpolation-filters="sRGB">
<feFlood flood-opacity="0" result="BackgroundImageFix"/>
<feColorMatrix in="SourceAlpha" type="matrix" values="0 0 0 0 0 0 0 0 0 0 0 0 0 0 0 0 0 0 127 0" result="hardAlpha"/>
<feOffset dx="2.45" dy="4.9"/>
<feGaussianBlur stdDeviation="9.1875"/>
<feComposite in2="hardAlpha" operator="out"/>
<feColorMatrix type="matrix" values="0 0 0 0 0.929412 0 0 0 0 0.356863 0 0 0 0 0.458824 0 0 0 0.35 0"/>
<feBlend mode="normal" in2="BackgroundImageFix" result="effect1_dropShadow_93_739"/>
<feBlend mode="normal" in="SourceGraphic" in2="effect1_dropShadow_93_739" result="shape"/>
</filter>
<clipPath id="clip0_93_739">
<rect width="32.5" height="32.5" fill="white" transform="translate(33.0583 29.8018)"/>
</clipPath>
</defs>
</svg>
