<svg width="103" height="102" viewBox="0 0 103 102" fill="none" xmlns="http://www.w3.org/2000/svg">
<g filter="url(#filter0_d_181_1894)">
<rect x="16.8086" y="13.5518" width="65" height="65" rx="2.45" fill="#ED5B75"/>
</g>
<g clip-path="url(#clip0_181_1894)">
<path d="M49.308 59.5931C41.829 59.5931 35.7664 53.5305 35.7664 46.0514C35.7664 38.5724 41.829 32.5098 49.308 32.5098C56.7871 32.5098 62.8497 38.5724 62.8497 46.0514C62.8497 53.5305 56.7871 59.5931 49.308 59.5931ZM49.308 56.8848C52.1812 56.8848 54.9367 55.7434 56.9683 53.7118C59 51.6801 60.1414 48.9246 60.1414 46.0514C60.1414 43.1783 59 40.4228 56.9683 38.3911C54.9367 36.3595 52.1812 35.2181 49.308 35.2181C46.4348 35.2181 43.6793 36.3595 41.6477 38.3911C39.6161 40.4228 38.4747 43.1783 38.4747 46.0514C38.4747 48.9246 39.6161 51.6801 41.6477 53.7118C43.6793 55.7434 46.4348 56.8848 49.308 56.8848ZM44.5684 48.7598H52.0164C52.1959 48.7598 52.3682 48.6884 52.4951 48.5615C52.6221 48.4345 52.6934 48.2623 52.6934 48.0827C52.6934 47.9031 52.6221 47.7309 52.4951 47.6039C52.3682 47.4769 52.1959 47.4056 52.0164 47.4056H46.5997C45.7018 47.4056 44.8407 47.0489 44.2058 46.414C43.571 45.7791 43.2143 44.9181 43.2143 44.0202C43.2143 43.1223 43.571 42.2612 44.2058 41.6263C44.8407 40.9914 45.7018 40.6348 46.5997 40.6348H47.9539V37.9264H50.6622V40.6348H54.0476V43.3431H46.5997C46.4201 43.3431 46.2479 43.4144 46.1209 43.5414C45.9939 43.6684 45.9226 43.8406 45.9226 44.0202C45.9226 44.1998 45.9939 44.372 46.1209 44.499C46.2479 44.6259 46.4201 44.6973 46.5997 44.6973H52.0164C52.9142 44.6973 53.7753 45.0539 54.4102 45.6888C55.0451 46.3237 55.4018 47.1848 55.4018 48.0827C55.4018 48.9806 55.0451 49.8416 54.4102 50.4765C53.7753 51.1114 52.9142 51.4681 52.0164 51.4681H50.6622V54.1764H47.9539V51.4681H44.5684V48.7598Z" fill="white"/>
</g>
<defs>
<filter id="filter0_d_181_1894" x="0.883594" y="0.0767574" width="101.75" height="101.75" filterUnits="userSpaceOnUse" color-interpolation-filters="sRGB">
<feFlood flood-opacity="0" result="BackgroundImageFix"/>
<feColorMatrix in="SourceAlpha" type="matrix" values="0 0 0 0 0 0 0 0 0 0 0 0 0 0 0 0 0 0 127 0" result="hardAlpha"/>
<feOffset dx="2.45" dy="4.9"/>
<feGaussianBlur stdDeviation="9.1875"/>
<feComposite in2="hardAlpha" operator="out"/>
<feColorMatrix type="matrix" values="0 0 0 0 0.929412 0 0 0 0 0.356863 0 0 0 0 0.458824 0 0 0 0.35 0"/>
<feBlend mode="normal" in2="BackgroundImageFix" result="effect1_dropShadow_181_1894"/>
<feBlend mode="normal" in="SourceGraphic" in2="effect1_dropShadow_181_1894" result="shape"/>
</filter>
<clipPath id="clip0_181_1894">
<rect width="32.5" height="32.5" fill="white" transform="translate(33.0583 29.8018)"/>
</clipPath>
</defs>
</svg>
