<svg width="103" height="102" viewBox="0 0 103 102" fill="none" xmlns="http://www.w3.org/2000/svg">
<g filter="url(#filter0_d_181_1219)">
<rect x="16.8086" y="13.5703" width="65" height="65" rx="2.45" fill="#4FDFB1"/>
</g>
<g clip-path="url(#clip0_181_1219)">
<path d="M56.0791 33.8831H61.4958C61.8549 33.8831 62.1994 34.0258 62.4533 34.2798C62.7073 34.5337 62.8499 34.8782 62.8499 35.2373V56.904C62.8499 57.2631 62.7073 57.6076 62.4533 57.8615C62.1994 58.1155 61.8549 58.2581 61.4958 58.2581H37.1208C36.7616 58.2581 36.4172 58.1155 36.1632 57.8615C35.9093 57.6076 35.7666 57.2631 35.7666 56.904V35.2373C35.7666 34.8782 35.9093 34.5337 36.1632 34.2798C36.4172 34.0258 36.7616 33.8831 37.1208 33.8831H42.5374V31.1748H45.2458V33.8831H53.3708V31.1748H56.0791V33.8831ZM38.4749 42.0081V55.5498H60.1416V42.0081H38.4749ZM41.1833 44.7165H43.8916V47.4248H41.1833V44.7165ZM47.9541 44.7165H50.6624V47.4248H47.9541V44.7165ZM54.7249 44.7165H57.4333V47.4248H54.7249V44.7165Z" fill="white"/>
</g>
<defs>
<filter id="filter0_d_181_1219" x="0.883594" y="0.0953121" width="101.75" height="101.75" filterUnits="userSpaceOnUse" color-interpolation-filters="sRGB">
<feFlood flood-opacity="0" result="BackgroundImageFix"/>
<feColorMatrix in="SourceAlpha" type="matrix" values="0 0 0 0 0 0 0 0 0 0 0 0 0 0 0 0 0 0 127 0" result="hardAlpha"/>
<feOffset dx="2.45" dy="4.9"/>
<feGaussianBlur stdDeviation="9.1875"/>
<feComposite in2="hardAlpha" operator="out"/>
<feColorMatrix type="matrix" values="0 0 0 0 0.309804 0 0 0 0 0.87451 0 0 0 0 0.694118 0 0 0 0.35 0"/>
<feBlend mode="normal" in2="BackgroundImageFix" result="effect1_dropShadow_181_1219"/>
<feBlend mode="normal" in="SourceGraphic" in2="effect1_dropShadow_181_1219" result="shape"/>
</filter>
<clipPath id="clip0_181_1219">
<rect width="32.5" height="32.5" fill="white" transform="translate(33.0586 29.8203)"/>
</clipPath>
</defs>
</svg>
