<svg width="103" height="102" viewBox="0 0 103 102" fill="none" xmlns="http://www.w3.org/2000/svg">
<g filter="url(#filter0_d_181_1230)">
<rect x="16.8086" y="13.5518" width="65" height="65" rx="2.45" fill="#ED5B75"/>
</g>
<g clip-path="url(#clip0_181_1230)">
<path d="M49.3083 59.5931C41.8292 59.5931 35.7666 53.5305 35.7666 46.0514C35.7666 38.5724 41.8292 32.5098 49.3083 32.5098C56.7873 32.5098 62.8499 38.5724 62.8499 46.0514C62.8499 53.5305 56.7873 59.5931 49.3083 59.5931ZM49.3083 56.8848C52.1814 56.8848 54.9369 55.7434 56.9686 53.7118C59.0002 51.6801 60.1416 48.9246 60.1416 46.0514C60.1416 43.1783 59.0002 40.4228 56.9686 38.3911C54.9369 36.3595 52.1814 35.2181 49.3083 35.2181C46.4351 35.2181 43.6796 36.3595 41.6479 38.3911C39.6163 40.4228 38.4749 43.1783 38.4749 46.0514C38.4749 48.9246 39.6163 51.6801 41.6479 53.7118C43.6796 55.7434 46.4351 56.8848 49.3083 56.8848ZM44.5687 48.7598H52.0166C52.1962 48.7598 52.3684 48.6884 52.4954 48.5615C52.6224 48.4345 52.6937 48.2623 52.6937 48.0827C52.6937 47.9031 52.6224 47.7309 52.4954 47.6039C52.3684 47.4769 52.1962 47.4056 52.0166 47.4056H46.5999C45.7021 47.4056 44.841 47.0489 44.2061 46.414C43.5712 45.7791 43.2145 44.9181 43.2145 44.0202C43.2145 43.1223 43.5712 42.2612 44.2061 41.6263C44.841 40.9914 45.7021 40.6348 46.5999 40.6348H47.9541V37.9264H50.6624V40.6348H54.0479V43.3431H46.5999C46.4204 43.3431 46.2481 43.4144 46.1212 43.5414C45.9942 43.6684 45.9229 43.8406 45.9229 44.0202C45.9229 44.1998 45.9942 44.372 46.1212 44.499C46.2481 44.6259 46.4204 44.6973 46.5999 44.6973H52.0166C52.9145 44.6973 53.7756 45.0539 54.4105 45.6888C55.0453 46.3237 55.402 47.1848 55.402 48.0827C55.402 48.9806 55.0453 49.8416 54.4105 50.4765C53.7756 51.1114 52.9145 51.4681 52.0166 51.4681H50.6624V54.1764H47.9541V51.4681H44.5687V48.7598Z" fill="white"/>
</g>
<defs>
<filter id="filter0_d_181_1230" x="0.883594" y="0.0767574" width="101.75" height="101.75" filterUnits="userSpaceOnUse" color-interpolation-filters="sRGB">
<feFlood flood-opacity="0" result="BackgroundImageFix"/>
<feColorMatrix in="SourceAlpha" type="matrix" values="0 0 0 0 0 0 0 0 0 0 0 0 0 0 0 0 0 0 127 0" result="hardAlpha"/>
<feOffset dx="2.45" dy="4.9"/>
<feGaussianBlur stdDeviation="9.1875"/>
<feComposite in2="hardAlpha" operator="out"/>
<feColorMatrix type="matrix" values="0 0 0 0 0.929412 0 0 0 0 0.356863 0 0 0 0 0.458824 0 0 0 0.35 0"/>
<feBlend mode="normal" in2="BackgroundImageFix" result="effect1_dropShadow_181_1230"/>
<feBlend mode="normal" in="SourceGraphic" in2="effect1_dropShadow_181_1230" result="shape"/>
</filter>
<clipPath id="clip0_181_1230">
<rect width="32.5" height="32.5" fill="white" transform="translate(33.0586 29.8018)"/>
</clipPath>
</defs>
</svg>
