<svg width="103" height="102" viewBox="0 0 103 102" fill="none" xmlns="http://www.w3.org/2000/svg">
<g filter="url(#filter0_d_4_794)">
<rect x="16.8085" y="13.5883" width="65" height="65" rx="2.45" fill="#FBB142"/>
</g>
<path d="M49.308 59.6302C41.829 59.6302 35.7664 53.5676 35.7664 46.0885C35.7664 38.6095 41.829 32.5469 49.308 32.5469C56.7871 32.5469 62.8497 38.6095 62.8497 46.0885C62.8497 53.5676 56.7871 59.6302 49.308 59.6302ZM49.308 56.9219C52.1812 56.9219 54.9367 55.7805 56.9683 53.7489C59 51.7172 60.1414 48.9617 60.1414 46.0885C60.1414 43.2154 59 40.4599 56.9683 38.4282C54.9367 36.3966 52.1812 35.2552 49.308 35.2552C46.4348 35.2552 43.6793 36.3966 41.6477 38.4282C39.6161 40.4599 38.4747 43.2154 38.4747 46.0885C38.4747 48.9617 39.6161 51.7172 41.6477 53.7489C43.6793 55.7805 46.4348 56.9219 49.308 56.9219ZM49.308 39.3854L56.0112 46.0885L49.308 52.7917L42.6049 46.0885L49.308 39.3854ZM49.308 43.2164L46.4358 46.0885L49.308 48.9607L52.1802 46.0885L49.308 43.2164Z" fill="white"/>
<defs>
<filter id="filter0_d_4_794" x="0.883471" y="0.113317" width="101.75" height="101.75" filterUnits="userSpaceOnUse" color-interpolation-filters="sRGB">
<feFlood flood-opacity="0" result="BackgroundImageFix"/>
<feColorMatrix in="SourceAlpha" type="matrix" values="0 0 0 0 0 0 0 0 0 0 0 0 0 0 0 0 0 0 127 0" result="hardAlpha"/>
<feOffset dx="2.45" dy="4.9"/>
<feGaussianBlur stdDeviation="9.1875"/>
<feComposite in2="hardAlpha" operator="out"/>
<feColorMatrix type="matrix" values="0 0 0 0 0.984314 0 0 0 0 0.694118 0 0 0 0 0.258824 0 0 0 0.35 0"/>
<feBlend mode="normal" in2="BackgroundImageFix" result="effect1_dropShadow_4_794"/>
<feBlend mode="normal" in="SourceGraphic" in2="effect1_dropShadow_4_794" result="shape"/>
</filter>
</defs>
</svg>
