<svg width="48" height="40" viewBox="0 0 48 40" fill="none" xmlns="http://www.w3.org/2000/svg">
<path d="M24 23.1765C27.32 23.1765 29.98 21.0483 29.98 18.4118L30 8.88238C30 6.24591 27.32 4.11768 24 4.11768C20.68 4.11768 18 6.24591 18 8.88238V18.4118C18 21.0483 20.68 23.1765 24 23.1765ZM21.6 8.72356C21.6 7.67532 22.68 6.81768 24 6.81768C25.32 6.81768 26.4 7.67532 26.4 8.72356L26.38 18.5706C26.38 19.6189 25.32 20.4765 24 20.4765C22.68 20.4765 21.6 19.6189 21.6 18.5706V8.72356ZM34.6 18.4118C34.6 23.1765 29.52 26.5118 24 26.5118C18.48 26.5118 13.4 23.1765 13.4 18.4118H10C10 23.8277 15.44 28.3065 22 29.0847V34.2941H26V29.0847C32.56 28.3224 38 23.8436 38 18.4118H34.6Z" fill="#B7B7B7"/>
</svg>
