<svg width="48" height="40" viewBox="0 0 48 40" fill="none" xmlns="http://www.w3.org/2000/svg">
<g clip-path="url(#clip0_181_2212)">
<path d="M24 23.177C27.32 23.177 29.98 21.0488 29.98 18.4123L30 8.88287C30 6.2464 27.32 4.11816 24 4.11816C20.68 4.11816 18 6.2464 18 8.88287V18.4123C18 21.0488 20.68 23.177 24 23.177ZM21.6 8.72405C21.6 7.67581 22.68 6.81816 24 6.81816C25.32 6.81816 26.4 7.67581 26.4 8.72405L26.38 18.5711C26.38 19.6193 25.32 20.477 24 20.477C22.68 20.477 21.6 19.6193 21.6 18.5711V8.72405ZM34.6 18.4123C34.6 23.177 29.52 26.5123 24 26.5123C18.48 26.5123 13.4 23.177 13.4 18.4123H10C10 23.8282 15.44 28.307 22 29.0852V34.2946H26V29.0852C32.56 28.3229 38 23.844 38 18.4123H34.6Z" fill="#B7B7B7"/>
</g>
<defs>
<clipPath id="clip0_181_2212">
<rect width="48" height="38.1176" fill="white" transform="translate(0 0.941406)"/>
</clipPath>
</defs>
</svg>
