<svg width="48" height="40" viewBox="0 0 48 40" fill="none" xmlns="http://www.w3.org/2000/svg">
<path d="M24 23.1764C27.32 23.1764 29.98 21.0482 29.98 18.4117L30 8.88232C30 6.24585 27.32 4.11761 24 4.11761C20.68 4.11761 18 6.24585 18 8.88232V18.4117C18 21.0482 20.68 23.1764 24 23.1764ZM21.6 8.7235C21.6 7.67526 22.68 6.81761 24 6.81761C25.32 6.81761 26.4 7.67526 26.4 8.7235L26.38 18.5706C26.38 19.6188 25.32 20.4764 24 20.4764C22.68 20.4764 21.6 19.6188 21.6 18.5706V8.7235ZM34.6 18.4117C34.6 23.1764 29.52 26.5117 24 26.5117C18.48 26.5117 13.4 23.1764 13.4 18.4117H10C10 23.8276 15.44 28.3064 22 29.0847V34.2941H26V29.0847C32.56 28.3223 38 23.8435 38 18.4117H34.6Z" fill="#B7B7B7"/>
</svg>
