<svg width="48" height="40" viewBox="0 0 48 40" fill="none" xmlns="http://www.w3.org/2000/svg">
<g clip-path="url(#clip0_181_2209)">
<path d="M31 23.1766H29.42L28.86 22.7478C30.82 20.9372 32 18.5866 32 16.0296C32 10.3278 26.18 5.70605 19 5.70605C11.82 5.70605 6 10.3278 6 16.0296C6 21.7313 11.82 26.3531 19 26.3531C22.22 26.3531 25.18 25.4161 27.46 23.8596L28 24.3043V25.559L38 33.4843L40.98 31.1178L31 23.1766ZM19 23.1766C14.02 23.1766 10 19.9843 10 16.0296C10 12.0749 14.02 8.88253 19 8.88253C23.98 8.88253 28 12.0749 28 16.0296C28 19.9843 23.98 23.1766 19 23.1766Z" fill="#B7B7B7"/>
</g>
<defs>
<clipPath id="clip0_181_2209">
<rect width="48" height="38.1176" fill="white" transform="translate(0 0.941406)"/>
</clipPath>
</defs>
</svg>
