<svg width="48" height="40" viewBox="0 0 48 40" fill="none" xmlns="http://www.w3.org/2000/svg">
<path d="M31 23.1764H29.42L28.86 22.7476C30.82 20.937 32 18.5864 32 16.0293C32 10.3276 26.18 5.70581 19 5.70581C11.82 5.70581 6 10.3276 6 16.0293C6 21.7311 11.82 26.3529 19 26.3529C22.22 26.3529 25.18 25.4158 27.46 23.8593L28 24.304V25.5588L38 33.484L40.98 31.1176L31 23.1764ZM19 23.1764C14.02 23.1764 10 19.984 10 16.0293C10 12.0746 14.02 8.88228 19 8.88228C23.98 8.88228 28 12.0746 28 16.0293C28 19.984 23.98 23.1764 19 23.1764Z" fill="#B7B7B7"/>
</svg>
