<svg width="48" height="40" viewBox="0 0 48 40" fill="none" xmlns="http://www.w3.org/2000/svg">
<path d="M31 23.1765H29.42L28.86 22.7476C30.82 20.937 32 18.5865 32 16.0294C32 10.3276 26.18 5.70587 19 5.70587C11.82 5.70587 6 10.3276 6 16.0294C6 21.7312 11.82 26.3529 19 26.3529C22.22 26.3529 25.18 25.4159 27.46 23.8594L28 24.3041V25.5588L38 33.4841L40.98 31.1176L31 23.1765ZM19 23.1765C14.02 23.1765 10 19.9841 10 16.0294C10 12.0747 14.02 8.88234 19 8.88234C23.98 8.88234 28 12.0747 28 16.0294C28 19.9841 23.98 23.1765 19 23.1765Z" fill="#B7B7B7"/>
</svg>
